<?xml version="1.0" encoding="UTF-8"?>
<svg width="39px" height="39px" viewBox="0 0 39 39" version="1.1" xmlns="http://www.w3.org/2000/svg" xmlns:xlink="http://www.w3.org/1999/xlink">
    <title>icon / investing</title>
    <defs>
        <polygon id="path-1" points="0 0 39 0 39 39.0000203 0 39.0000203"></polygon>
    </defs>
    <g id="V1.0-Designs" stroke="none" stroke-width="1" fill="none" fill-rule="evenodd">
        <g id="0.0-Splash" transform="translate(-242.000000, -661.000000)">
            <g id="icons" transform="translate(95.000000, 661.000000)">
                <g id="Group" transform="translate(147.000000, 0.000000)">
                    <g id="Group" transform="translate(0.000000, -0.000000)">
                        <g id="Group-3">
                            <mask id="mask-2" fill="white">
                                <use xlink:href="#path-1"></use>
                            </mask>
                            <g id="Clip-2"></g>
                            <path d="M19.4999898,39.0000203 L19.5000576,39.0000203 C30.2695475,39.0000203 39,30.2695678 39,19.5000102 L39,19.5000102 C39,8.73045246 30.2695475,0 19.5000576,0 L19.4999898,0 C8.73043215,0 -2.03125106e-05,8.73045246 -2.03125106e-05,19.5000102 L-2.03125106e-05,19.5000102 C-2.03125106e-05,30.2695678 8.73043215,39.0000203 19.4999898,39.0000203" id="Fill-1" fill="#B16EFF" mask="url(#mask-2)"></path>
                        </g>
                        <path d="M18.0107984,15.7210639 L20.5930602,16.4014653 C20.7733676,16.4436476 20.902826,16.6018144 20.9085135,16.7868613 C20.9085135,17.0057625 20.7139196,17.1866116 20.4745706,17.1866116 L18.7806426,17.1866116 C18.5981008,17.1860699 18.4173872,17.150523 18.2482517,17.0819344 C17.9988818,16.9771896 17.7115275,17.0010229 17.5202513,17.1770647 L16.6162092,18.0097422 C16.5743654,18.0463724 16.5382768,18.0890287 16.5090945,18.1362891 C16.3528913,18.3925653 16.434006,18.7269092 16.6902144,18.8831124 C16.6913655,18.8838572 16.6925842,18.8845343 16.6937353,18.8852791 C17.1943709,19.1857011 17.7549285,19.3725085 18.3357986,19.4324304 L18.3357986,20.2746548 C18.3357986,20.6933634 18.7083301,21.0359677 19.162247,21.0359677 L19.988763,21.0359677 C20.4431539,21.0359677 20.815753,20.6933634 20.815753,20.2746548 L20.815753,19.43717 C22.3825924,19.2658678 23.5678951,17.9621432 23.3613846,16.4395174 C23.2114782,15.3451471 22.2926757,14.4744174 21.1459667,14.1698652 L18.563705,13.4894638 C18.3833976,13.4472815 18.2539392,13.2891824 18.2482517,13.1040678 C18.2482517,12.8851666 18.4428455,12.7043853 18.6821946,12.7043853 L20.3760549,12.7043853 C20.5592737,12.7046561 20.7406644,12.740203 20.9104093,12.8090624 C21.1593053,12.9137395 21.4471336,12.8899739 21.6384097,12.7138644 L22.5424518,11.8811869 C22.5829414,11.8453692 22.6177436,11.8036608 22.6457071,11.7574837 C22.8031291,11.5016815 22.7232332,11.1666605 22.467431,11.0093063 C22.4659414,11.008426 22.4645195,11.0075458 22.4630299,11.0066656 C21.9621911,10.7061759 21.4014981,10.5194362 20.8204926,10.4594466 L20.8204926,9.61634199 C20.8204926,9.19763344 20.4484351,8.85502909 19.9939766,8.85502909 L19.1675282,8.85502909 C18.7131374,8.85502909 18.3410122,9.19763344 18.3410122,9.61634199 L18.3410122,10.4537591 C16.7760686,10.6250613 15.5883961,11.9287859 15.7949067,13.4514117 C15.944339,14.5457821 16.8659853,15.4165117 18.0107984,15.7210639" id="Fill-4" fill="#69387F"></path>
                        <path d="M27.9218276,32.5253669 L33.8519973,23.499706 C33.9465859,23.3556903 33.9970286,23.1871642 33.9970286,23.0148464 L33.9970286,12.7897994 C33.9970286,12.3021637 33.6016795,11.9068145 33.1140438,11.9068145 L32.4159028,11.9068145 C31.9282672,11.9068145 31.5329857,12.3021637 31.5329857,12.7897994 L31.5329857,19.3911622 C31.5329857,19.6229956 31.4417148,19.8456208 31.2790116,20.0107615 L27.7165358,23.6272008 C27.3521971,23.9970917 26.7488478,23.9742739 26.4134882,23.5779092 L26.4134882,23.5779092 C26.1204464,23.2315808 26.1375089,22.7195702 26.4529622,22.3935544 L29.3533179,19.3962403 C29.6844795,19.0540422 29.6846149,18.5109534 29.3536564,18.1685522 L28.7698072,17.5644581 C28.4398643,17.2231402 27.8990098,17.2037756 27.5455045,17.5206508 L21.9703297,22.5188149 C21.7835223,22.6863254 21.6767462,22.9253359 21.6767462,23.1762631 L21.6767462,32.0405073 C21.6767462,32.528143 22.0720954,32.9234921 22.559731,32.9234921 L27.1838741,32.9234921 C27.4811815,32.9234921 27.7585827,32.7738567 27.9218276,32.5253669" id="Fill-6" fill="#69387F"></path>
                        <path d="M11.0781927,32.5253669 L5.14802299,23.499706 C5.0534344,23.3556903 5.00299167,23.1871642 5.00299167,23.0148464 L5.00299167,12.7897994 C5.00299167,12.3021637 5.39834083,11.9068145 5.8859765,11.9068145 L6.58411749,11.9068145 C7.07175316,11.9068145 7.46703462,12.3021637 7.46703462,12.7897994 L7.46703462,19.3911622 C7.46703462,19.6229956 7.5583055,19.8456208 7.72100871,20.0107615 L11.2834845,23.6272008 C11.6478233,23.9970917 12.2511725,23.9742739 12.5865321,23.5779092 L12.5865321,23.5779092 C12.8795739,23.2315808 12.8625114,22.7195702 12.5470581,22.3935544 L9.64670242,19.3962403 C9.31554079,19.0540422 9.31540537,18.5109534 9.64629617,18.1685522 L10.2302131,17.5644581 C10.560156,17.2231402 11.1010105,17.2037756 11.4545159,17.5206508 L17.0296906,22.5188149 C17.216498,22.6863254 17.3232741,22.9253359 17.3232741,23.1762631 L17.3232741,32.0405073 C17.3232741,32.528143 16.927925,32.9234921 16.4402893,32.9234921 L11.8161463,32.9234921 C11.5188388,32.9234921 11.2414376,32.7738567 11.0781927,32.5253669" id="Fill-8" fill="#69387F"></path>
                    </g>
                </g>
            </g>
        </g>
    </g>
</svg>