<?xml version="1.0" encoding="UTF-8"?>
<svg width="39px" height="39px" viewBox="0 0 39 39" version="1.1" xmlns="http://www.w3.org/2000/svg" xmlns:xlink="http://www.w3.org/1999/xlink">
    <title>icon / finance</title>
    <defs>
        <polygon id="path-1" points="0 0 39 0 39 39.0000203 0 39.0000203"></polygon>
    </defs>
    <g id="V1.0-Designs" stroke="none" stroke-width="1" fill="none" fill-rule="evenodd">
        <g id="0.0-Splash" transform="translate(-95.000000, -661.000000)">
            <g id="icon-/-finance" transform="translate(95.000000, 661.000000)">
                <g id="Group-3">
                    <mask id="mask-2" fill="white">
                        <use xlink:href="#path-1"></use>
                    </mask>
                    <g id="Clip-2"></g>
                    <path d="M19.4999898,39.0000203 L19.5000576,39.0000203 C30.2695475,39.0000203 39,30.2695678 39,19.5000102 L39,19.5000102 C39,8.73045246 30.2695475,0 19.5000576,0 L19.4999898,0 C8.73043215,0 -2.03125106e-05,8.73045246 -2.03125106e-05,19.5000102 L-2.03125106e-05,19.5000102 C-2.03125106e-05,30.2695678 8.73043215,39.0000203 19.4999898,39.0000203" id="Fill-1" fill="#EE94FF" mask="url(#mask-2)"></path>
                </g>
                <path d="M16.4081752,9.83455929 L23.2241058,9.83455929 C23.5115956,9.83455929 23.7938718,9.85588742 24.0707313,9.87714785 C24.0707313,9.86116868 24.0760802,9.85053846 24.0760802,9.83455929 C24.0760802,7.01233907 21.7863186,4.72264517 18.9641661,4.72264517 C16.1419459,4.72264517 13.8521843,7.01233907 13.8521843,9.83455929 C13.8521843,9.94641351 13.8788614,10.0528511 13.8841426,10.1647053 C14.6935285,9.95704373 15.5348727,9.83455929 16.4081752,9.83455929 M25.7800291,20.0583875 C25.3114194,20.0583875 24.9280547,19.6750227 24.9280547,19.2064131 C24.9280547,18.7378035 25.3114194,18.3544387 25.7800291,18.3544387 C26.2486387,18.3544387 26.6320035,18.7378035 26.6320035,19.2064131 C26.6320035,19.6750227 26.2486387,20.0583875 25.7800291,20.0583875 M32.5959597,16.6504899 L31.0251255,16.6504899 C30.5565159,15.585505 29.8748958,14.6429368 29.0335516,13.8548791 L30.0399688,9.83455929 L28.33602,9.83455929 C26.7704671,9.83455929 25.3859663,10.553419 24.4488148,11.6609925 C24.0441219,11.6024248 23.6447779,11.5385081 23.2241058,11.5385081 L16.4081752,11.5385081 C12.2866991,11.5385081 8.8521244,14.4672336 8.05871774,18.3544387 L5.75832592,18.3544387 C4.97026821,18.3544387 4.34721581,17.635579 4.50693985,16.8208442 C4.62414303,16.2138387 5.19390896,15.7984478 5.81154469,15.7984478 L5.86483118,15.7984478 C6.0405344,15.7984478 6.18434697,15.6547029 6.18434697,15.4789997 L6.18434697,14.4140148 C6.18434697,14.2382439 6.0405344,14.094499 5.86483118,14.094499 C4.34721581,14.094499 2.99467343,15.1808121 2.80299104,16.6823806 C2.56872009,18.5035326 3.98511145,20.0583875 5.75832592,20.0583875 L7.88829578,20.0583875 C7.88829578,22.8380192 9.24083815,25.2821559 11.2962611,26.8370109 L11.2962611,31.1342579 C11.2962611,31.6028675 11.6796259,31.9862323 12.1482355,31.9862323 L15.5562008,31.9862323 C16.0248104,31.9862323 16.4081752,31.6028675 16.4081752,31.1342579 L16.4081752,28.578267 L23.2241058,28.578267 L23.2241058,31.1342579 C23.2241058,31.6028675 23.6074706,31.9862323 24.0760802,31.9862323 L27.4840456,31.9862323 C27.9525875,31.9862323 28.33602,31.6028675 28.33602,31.1342579 L28.33602,26.8370109 C28.9643536,26.36312 29.5234893,25.8039843 30.0027292,25.1703694 L32.5959597,25.1703694 C33.0645693,25.1703694 33.4479341,24.7869369 33.4479341,24.3183272 L33.4479341,17.5024643 C33.4479341,17.0338547 33.0645693,16.6504899 32.5959597,16.6504899" id="Fill-4" fill="#C62E94"></path>
            </g>
        </g>
    </g>
</svg>