<?xml version="1.0" encoding="UTF-8"?>
<svg width="39px" height="39px" viewBox="0 0 39 39" version="1.1" xmlns="http://www.w3.org/2000/svg" xmlns:xlink="http://www.w3.org/1999/xlink">
    <title>icon / marketing</title>
    <defs>
        <polygon id="path-1" points="0 0 39 0 39 39.0000203 0 39.0000203"></polygon>
    </defs>
    <g id="V1.0-Designs" stroke="none" stroke-width="1" fill="none" fill-rule="evenodd">
        <g id="0.0-Splash" transform="translate(-144.000000, -661.000000)">
            <g id="icons" transform="translate(95.000000, 661.000000)">
                <g id="icon-/-marketing" transform="translate(49.000000, 0.000000)">
                    <g id="Group-3">
                        <mask id="mask-2" fill="white">
                            <use xlink:href="#path-1"></use>
                        </mask>
                        <g id="Clip-2"></g>
                        <path d="M19.4999898,39.0000203 L19.5000576,39.0000203 C30.2695475,39.0000203 39,30.2695678 39,19.5000102 L39,19.5000102 C39,8.73045246 30.2695475,0 19.5000576,0 L19.4999898,0 C8.73043215,0 -2.03125106e-05,8.73045246 -2.03125106e-05,19.5000102 L-2.03125106e-05,19.5000102 C-2.03125106e-05,30.2695678 8.73043215,39.0000203 19.4999898,39.0000203" id="Fill-1" fill="#8FEAA9" mask="url(#mask-2)"></path>
                    </g>
                    <path d="M29.8255364,28.6744941 L30.8411619,28.6744941 C31.2880371,28.6744941 31.6536623,28.3088689 31.6536623,27.8619937 L31.6536623,10.1901095 C31.6536623,9.74323424 31.2880371,9.37760905 30.8411619,9.37760905 L29.8255364,9.37760905 C29.3786611,9.37760905 29.0130359,9.74323424 29.0130359,10.1901095 L29.0130359,27.8619937 C29.0130359,28.3088689 29.3786611,28.6744941 29.8255364,28.6744941" id="Fill-4" fill="#237C3A"></path>
                    <path d="M7.34635799,23.0546995 L8.42969189,23.0546995 C8.87656712,23.0546995 9.24219231,22.6890743 9.24219231,22.2421991 L9.24219231,14.5234451 C9.24219231,14.0765698 8.87656712,13.7109446 8.42969189,13.7109446 L7.34635799,13.7109446 C6.89948276,13.7109446 6.53385757,14.0765698 6.53385757,14.5234451 L6.53385757,22.2421991 C6.53385757,22.6890743 6.89948276,23.0546995 7.34635799,23.0546995" id="Fill-6" fill="#237C3A"></path>
                    <path d="M15.6174227,27.1172016 L15.2237663,27.1172016 C13.8855781,27.1172016 12.7968952,26.0285188 12.7968952,24.6903306 L12.7968952,23.4723247 L18.0128094,25.0787058 C17.8263405,26.2328626 16.8233765,27.1172016 15.6174227,27.1172016 L15.6174227,27.1172016 Z M27.9297156,10.1647188 L9.24220586,14.32032 L9.24220586,22.3776158 L11.0364776,22.9301838 L11.0364776,24.6903306 C11.0364776,26.9992536 12.9148432,28.8776192 15.2237663,28.8776192 L15.6174227,28.8776192 C17.6140071,28.8776192 19.2876225,27.4726029 19.7040967,25.5995862 L27.9297156,28.1328272 L27.9297156,10.1647188 Z" id="Fill-8" fill="#237C3A"></path>
                </g>
            </g>
        </g>
    </g>
</svg>