<?xml version="1.0" encoding="UTF-8"?>
<svg width="39px" height="39px" viewBox="0 0 39 39" version="1.1" xmlns="http://www.w3.org/2000/svg" xmlns:xlink="http://www.w3.org/1999/xlink">
    <title>icon / business</title>
    <defs>
        <polygon id="path-1" points="0 0 38.9999797 0 38.9999797 39 0 39"></polygon>
        <polygon id="path-3" points="0 39 39 39 39 0 0 0"></polygon>
    </defs>
    <g id="V1.0-Designs" stroke="none" stroke-width="1" fill="none" fill-rule="evenodd">
        <g id="0.0-Splash" transform="translate(-193.000000, -661.000000)">
            <g id="icons" transform="translate(95.000000, 661.000000)">
                <g id="icon-/-business" transform="translate(98.000000, 0.000000)">
                    <g id="Group-3">
                        <mask id="mask-2" fill="white">
                            <use xlink:href="#path-1"></use>
                        </mask>
                        <g id="Clip-2"></g>
                        <path d="M19.4999797,39 L19.5000474,39 C30.2695318,39 38.9999797,30.2695521 38.9999797,19.5 L38.9999797,19.5 C38.9999797,8.73044792 30.2695318,0 19.5000474,0 L19.4999797,0 C8.7304276,0 -2.03125e-05,8.73044792 -2.03125e-05,19.5 L-2.03125e-05,19.5 C-2.03125e-05,30.2695521 8.7304276,39 19.4999797,39" id="Fill-1" fill="#F9C778" mask="url(#mask-2)"></path>
                    </g>
                    <mask id="mask-4" fill="white">
                        <use xlink:href="#path-3"></use>
                    </mask>
                    <g id="Clip-5"></g>
                    <path d="M16.191974,11.3417552 L23.2045938,11.3417552 L23.2045938,9.58858333 L16.191974,9.58858333 L16.191974,11.3417552 Z M31.0938333,11.3417552 L26.7109375,11.3417552 L26.7109375,8.71203125 C26.7109375,7.30952083 25.483724,6.08230729 24.0812135,6.08230729 L15.3153542,6.08230729 C13.9128438,6.08230729 12.6856302,7.30952083 12.6856302,8.71203125 L12.6856302,11.3417552 L8.30273438,11.3417552 C6.90022396,11.3417552 5.67301042,12.5689687 5.67301042,13.9715469 L5.67301042,18.3544427 L33.7235573,18.3544427 L33.7235573,13.9715469 C33.7235573,12.5689687 32.4963438,11.3417552 31.0938333,11.3417552 L31.0938333,11.3417552 Z M23.2045938,22.7373385 C23.2045938,23.2216562 22.8123594,23.6138906 22.3280417,23.6138906 L17.068526,23.6138906 C16.5842083,23.6138906 16.191974,23.2216562 16.191974,22.7373385 L16.191974,20.1076146 L5.67301042,20.1076146 L5.67301042,27.9968542 C5.67301042,29.3993646 6.90022396,30.6265781 8.30273438,30.6265781 L31.0938333,30.6265781 C32.4963438,30.6265781 33.7235573,29.3993646 33.7235573,27.9968542 L33.7235573,20.1076146 L23.2045938,20.1076146 L23.2045938,22.7373385 Z" id="Fill-4" fill="#E57403" mask="url(#mask-4)"></path>
                </g>
            </g>
        </g>
    </g>
</svg>